<?xml version="1.0" encoding="UTF-8"?>
<svg xmlns="http://www.w3.org/2000/svg" version="1.1" width="300" height="300" viewBox="0 0 300 300"><rect x="0" y="0" width="300" height="300" fill="#ffffff"/><g transform="scale(10.345)"><g transform="translate(0,0)"><path fill-rule="evenodd" d="M10 0L10 1L8 1L8 3L9 3L9 4L8 4L8 8L6 8L6 9L7 9L7 10L6 10L6 11L5 11L5 10L4 10L4 8L3 8L3 10L2 10L2 8L0 8L0 11L1 11L1 12L0 12L0 15L1 15L1 12L3 12L3 13L4 13L4 14L2 14L2 16L0 16L0 17L2 17L2 16L3 16L3 15L7 15L7 16L4 16L4 17L5 17L5 18L4 18L4 20L3 20L3 19L2 19L2 21L5 21L5 20L6 20L6 21L8 21L8 23L9 23L9 22L10 22L10 23L11 23L11 22L12 22L12 21L17 21L17 20L18 20L18 19L19 19L19 18L17 18L17 17L18 17L18 15L19 15L19 17L20 17L20 19L21 19L21 20L19 20L19 21L20 21L20 23L18 23L18 22L17 22L17 23L15 23L15 24L16 24L16 25L17 25L17 26L16 26L16 27L17 27L17 28L16 28L16 29L18 29L18 28L19 28L19 29L22 29L22 26L23 26L23 28L24 28L24 29L25 29L25 28L26 28L26 26L25 26L25 25L26 25L26 24L27 24L27 26L28 26L28 27L27 27L27 29L28 29L28 27L29 27L29 26L28 26L28 24L27 24L27 23L28 23L28 22L29 22L29 21L27 21L27 20L29 20L29 17L28 17L28 15L29 15L29 14L27 14L27 13L29 13L29 12L28 12L28 10L29 10L29 9L28 9L28 8L26 8L26 9L25 9L25 8L22 8L22 9L21 9L21 8L20 8L20 9L21 9L21 10L19 10L19 9L17 9L17 8L19 8L19 6L20 6L20 7L21 7L21 4L20 4L20 5L19 5L19 3L21 3L21 1L20 1L20 0L18 0L18 1L16 1L16 0L14 0L14 4L13 4L13 3L12 3L12 7L11 7L11 4L10 4L10 3L9 3L9 2L11 2L11 0ZM19 1L19 2L20 2L20 1ZM15 2L15 4L14 4L14 5L13 5L13 7L12 7L12 8L14 8L14 9L13 9L13 11L14 11L14 13L13 13L13 12L12 12L12 16L11 16L11 15L9 15L9 16L8 16L8 17L6 17L6 18L7 18L7 19L6 19L6 20L7 20L7 19L8 19L8 17L9 17L9 18L12 18L12 16L13 16L13 20L17 20L17 18L16 18L16 16L13 16L13 14L14 14L14 15L16 15L16 14L19 14L19 15L20 15L20 17L23 17L23 18L22 18L22 20L25 20L25 23L27 23L27 22L26 22L26 20L27 20L27 18L28 18L28 17L27 17L27 15L26 15L26 13L27 13L27 12L26 12L26 13L25 13L25 11L24 11L24 10L25 10L25 9L24 9L24 10L23 10L23 12L24 12L24 15L22 15L22 14L23 14L23 13L22 13L22 12L18 12L18 11L16 11L16 6L17 6L17 7L18 7L18 6L19 6L19 5L18 5L18 3L17 3L17 2ZM15 4L15 5L14 5L14 8L15 8L15 6L16 6L16 5L17 5L17 4ZM9 5L9 8L8 8L8 10L7 10L7 11L6 11L6 12L5 12L5 11L4 11L4 13L6 13L6 14L7 14L7 15L8 15L8 14L11 14L11 13L10 13L10 12L9 12L9 11L11 11L11 8L10 8L10 5ZM9 9L9 10L8 10L8 11L9 11L9 10L10 10L10 9ZM26 9L26 10L28 10L28 9ZM1 10L1 11L2 11L2 10ZM15 11L15 12L16 12L16 13L18 13L18 12L16 12L16 11ZM6 12L6 13L7 13L7 14L8 14L8 13L9 13L9 12ZM14 13L14 14L15 14L15 13ZM19 13L19 14L20 14L20 13ZM21 15L21 16L22 16L22 15ZM24 15L24 16L25 16L25 17L26 17L26 15ZM9 16L9 17L11 17L11 16ZM14 17L14 19L15 19L15 17ZM0 18L0 19L1 19L1 18ZM23 18L23 19L24 19L24 18ZM25 18L25 19L26 19L26 18ZM10 19L10 21L12 21L12 19ZM0 20L0 21L1 21L1 20ZM8 20L8 21L9 21L9 20ZM21 21L21 24L24 24L24 21ZM22 22L22 23L23 23L23 22ZM13 23L13 25L14 25L14 26L13 26L13 27L12 27L12 26L10 26L10 25L11 25L11 24L10 24L10 25L8 25L8 26L9 26L9 27L8 27L8 29L13 29L13 28L14 28L14 29L15 29L15 25L14 25L14 23ZM17 23L17 24L18 24L18 26L19 26L19 28L20 28L20 24L18 24L18 23ZM23 25L23 26L24 26L24 25ZM9 27L9 28L12 28L12 27ZM0 0L0 7L7 7L7 0ZM1 1L1 6L6 6L6 1ZM2 2L2 5L5 5L5 2ZM22 0L22 7L29 7L29 0ZM23 1L23 6L28 6L28 1ZM24 2L24 5L27 5L27 2ZM0 22L0 29L7 29L7 22ZM1 23L1 28L6 28L6 23ZM2 24L2 27L5 27L5 24Z" fill="#000000"/></g></g></svg>
