<?xml version="1.0" encoding="UTF-8"?>
<svg xmlns="http://www.w3.org/2000/svg" version="1.1" width="300" height="300" viewBox="0 0 300 300"><rect x="0" y="0" width="300" height="300" fill="#ffffff"/><g transform="scale(10.345)"><g transform="translate(0,0)"><path fill-rule="evenodd" d="M9 0L9 1L8 1L8 3L9 3L9 4L8 4L8 8L6 8L6 9L8 9L8 10L5 10L5 11L4 11L4 10L2 10L2 11L0 11L0 14L2 14L2 11L4 11L4 12L5 12L5 11L7 11L7 12L6 12L6 13L4 13L4 14L3 14L3 15L2 15L2 16L1 16L1 15L0 15L0 17L1 17L1 18L0 18L0 19L1 19L1 18L2 18L2 20L3 20L3 21L4 21L4 20L5 20L5 21L7 21L7 20L5 20L5 19L4 19L4 18L5 18L5 15L7 15L7 14L6 14L6 13L9 13L9 11L11 11L11 10L12 10L12 9L11 9L11 8L10 8L10 7L11 7L11 6L12 6L12 8L13 8L13 9L14 9L14 8L15 8L15 6L16 6L16 11L15 11L15 12L16 12L16 13L18 13L18 12L22 12L22 13L23 13L23 14L22 14L22 15L21 15L21 16L22 16L22 15L24 15L24 16L25 16L25 17L26 17L26 15L27 15L27 17L28 17L28 18L27 18L27 20L26 20L26 22L27 22L27 23L25 23L25 20L22 20L22 18L23 18L23 19L24 19L24 18L23 18L23 17L20 17L20 15L19 15L19 14L20 14L20 13L19 13L19 14L16 14L16 15L14 15L14 14L15 14L15 13L14 13L14 11L13 11L13 12L12 12L12 13L10 13L10 14L8 14L8 16L6 16L6 17L7 17L7 18L6 18L6 19L7 19L7 18L11 18L11 17L13 17L13 16L16 16L16 18L17 18L17 20L13 20L13 21L17 21L17 20L18 20L18 19L19 19L19 18L17 18L17 17L18 17L18 15L19 15L19 17L20 17L20 19L21 19L21 20L19 20L19 21L20 21L20 23L18 23L18 22L17 22L17 23L15 23L15 24L16 24L16 25L17 25L17 26L16 26L16 27L17 27L17 28L16 28L16 29L18 29L18 28L19 28L19 29L22 29L22 26L23 26L23 28L24 28L24 29L25 29L25 28L26 28L26 26L25 26L25 25L26 25L26 24L27 24L27 26L28 26L28 27L27 27L27 29L28 29L28 27L29 27L29 26L28 26L28 24L29 24L29 23L28 23L28 22L29 22L29 21L27 21L27 20L29 20L29 17L28 17L28 15L29 15L29 14L27 14L27 13L29 13L29 12L28 12L28 10L29 10L29 9L28 9L28 8L26 8L26 9L25 9L25 8L22 8L22 9L21 9L21 8L20 8L20 9L21 9L21 10L19 10L19 9L17 9L17 8L19 8L19 6L20 6L20 7L21 7L21 4L20 4L20 5L19 5L19 3L21 3L21 1L20 1L20 0L18 0L18 1L16 1L16 0L14 0L14 4L13 4L13 5L14 5L14 8L13 8L13 6L12 6L12 5L11 5L11 6L10 6L10 5L9 5L9 4L12 4L12 3L13 3L13 0L12 0L12 1L11 1L11 2L9 2L9 1L10 1L10 0ZM19 1L19 2L20 2L20 1ZM15 2L15 4L14 4L14 5L15 5L15 4L17 4L17 5L16 5L16 6L17 6L17 7L18 7L18 6L19 6L19 5L18 5L18 3L17 3L17 2ZM9 6L9 7L10 7L10 6ZM0 8L0 9L2 9L2 8ZM3 8L3 9L4 9L4 8ZM8 8L8 9L9 9L9 10L8 10L8 11L9 11L9 10L10 10L10 8ZM24 9L24 10L23 10L23 12L24 12L24 15L26 15L26 13L27 13L27 12L26 12L26 13L25 13L25 11L24 11L24 10L25 10L25 9ZM26 9L26 10L28 10L28 9ZM16 11L16 12L18 12L18 11ZM13 13L13 14L14 14L14 13ZM4 14L4 15L3 15L3 16L2 16L2 18L4 18L4 15L5 15L5 14ZM11 14L11 16L10 16L10 15L9 15L9 16L10 16L10 17L11 17L11 16L12 16L12 14ZM14 17L14 19L15 19L15 17ZM12 18L12 19L10 19L10 20L9 20L9 19L8 19L8 20L9 20L9 21L8 21L8 23L10 23L10 25L11 25L11 22L10 22L10 20L11 20L11 21L12 21L12 19L13 19L13 18ZM25 18L25 19L26 19L26 18ZM0 20L0 21L1 21L1 20ZM21 21L21 24L24 24L24 21ZM22 22L22 23L23 23L23 22ZM13 23L13 25L14 25L14 26L13 26L13 27L12 27L12 26L9 26L9 25L8 25L8 26L9 26L9 27L8 27L8 29L9 29L9 27L12 27L12 28L10 28L10 29L13 29L13 28L14 28L14 29L15 29L15 25L14 25L14 23ZM17 23L17 24L18 24L18 26L19 26L19 28L20 28L20 24L18 24L18 23ZM23 25L23 26L24 26L24 25ZM0 0L0 7L7 7L7 0ZM1 1L1 6L6 6L6 1ZM2 2L2 5L5 5L5 2ZM22 0L22 7L29 7L29 0ZM23 1L23 6L28 6L28 1ZM24 2L24 5L27 5L27 2ZM0 22L0 29L7 29L7 22ZM1 23L1 28L6 28L6 23ZM2 24L2 27L5 27L5 24Z" fill="#000000"/></g></g></svg>
