<?xml version="1.0" encoding="UTF-8"?>
<svg xmlns="http://www.w3.org/2000/svg" version="1.1" width="300" height="300" viewBox="0 0 300 300"><rect x="0" y="0" width="300" height="300" fill="#ffffff"/><g transform="scale(10.345)"><g transform="translate(0,0)"><path fill-rule="evenodd" d="M9 0L9 1L8 1L8 3L9 3L9 4L8 4L8 8L6 8L6 9L4 9L4 8L3 8L3 9L2 9L2 8L0 8L0 11L2 11L2 10L3 10L3 11L4 11L4 13L7 13L7 14L4 14L4 17L3 17L3 20L2 20L2 21L8 21L8 23L11 23L11 26L10 26L10 27L8 27L8 29L11 29L11 28L12 28L12 29L14 29L14 28L12 28L12 24L14 24L14 25L13 25L13 27L15 27L15 28L17 28L17 29L18 29L18 26L17 26L17 27L15 27L15 24L14 24L14 23L15 23L15 22L14 22L14 21L17 21L17 22L16 22L16 23L19 23L19 22L20 22L20 25L19 25L19 26L23 26L23 25L24 25L24 28L23 28L23 27L22 27L22 29L24 29L24 28L25 28L25 29L26 29L26 28L25 28L25 27L27 27L27 29L28 29L28 27L29 27L29 26L28 26L28 25L29 25L29 23L28 23L28 22L29 22L29 21L27 21L27 20L29 20L29 17L28 17L28 15L29 15L29 14L25 14L25 15L24 15L24 16L26 16L26 15L27 15L27 17L28 17L28 18L27 18L27 20L26 20L26 22L27 22L27 23L25 23L25 19L19 19L19 18L18 18L18 19L17 19L17 20L14 20L14 18L13 18L13 20L12 20L12 19L11 19L11 18L8 18L8 17L7 17L7 16L6 16L6 15L8 15L8 16L9 16L9 17L10 17L10 16L9 16L9 15L8 15L8 14L9 14L9 13L8 13L8 12L9 12L9 11L11 11L11 10L12 10L12 9L11 9L11 8L10 8L10 7L11 7L11 6L12 6L12 8L13 8L13 6L14 6L14 8L15 8L15 9L16 9L16 10L17 10L17 11L18 11L18 12L16 12L16 11L14 11L14 12L15 12L15 13L17 13L17 16L16 16L16 18L17 18L17 17L18 17L18 14L20 14L20 15L19 15L19 16L20 16L20 17L21 17L21 18L24 18L24 17L22 17L22 16L23 16L23 14L22 14L22 13L23 13L23 12L25 12L25 13L26 13L26 12L27 12L27 13L29 13L29 12L28 12L28 10L29 10L29 9L28 9L28 8L26 8L26 9L25 9L25 8L22 8L22 9L20 9L20 8L21 8L21 6L20 6L20 5L18 5L18 7L17 7L17 3L18 3L18 4L20 4L20 3L21 3L21 1L20 1L20 0L12 0L12 1L11 1L11 2L9 2L9 1L10 1L10 0ZM16 1L16 3L17 3L17 2L18 2L18 1ZM19 1L19 3L20 3L20 1ZM13 2L13 3L12 3L12 4L9 4L9 5L10 5L10 6L9 6L9 7L10 7L10 6L11 6L11 5L12 5L12 6L13 6L13 5L15 5L15 3L14 3L14 2ZM15 6L15 8L17 8L17 10L18 10L18 11L19 11L19 12L18 12L18 13L19 13L19 12L23 12L23 11L25 11L25 12L26 12L26 11L25 11L25 9L23 9L23 10L22 10L22 11L21 11L21 10L20 10L20 11L19 11L19 9L18 9L18 8L17 8L17 7L16 7L16 6ZM19 6L19 8L20 8L20 6ZM8 8L8 9L6 9L6 10L7 10L7 11L5 11L5 12L8 12L8 9L9 9L9 10L10 10L10 8ZM1 9L1 10L2 10L2 9ZM3 9L3 10L4 10L4 9ZM26 9L26 10L28 10L28 9ZM1 12L1 15L2 15L2 16L1 16L1 18L0 18L0 19L1 19L1 18L2 18L2 16L3 16L3 14L2 14L2 13L3 13L3 12ZM12 12L12 13L10 13L10 14L12 14L12 16L11 16L11 17L12 17L12 16L13 16L13 17L15 17L15 15L13 15L13 12ZM20 13L20 14L21 14L21 15L22 15L22 14L21 14L21 13ZM4 17L4 20L5 20L5 19L6 19L6 20L8 20L8 21L9 21L9 22L10 22L10 21L11 21L11 20L8 20L8 18L7 18L7 17L6 17L6 18L5 18L5 17ZM25 17L25 18L26 18L26 17ZM6 18L6 19L7 19L7 18ZM0 20L0 21L1 21L1 20ZM13 20L13 21L14 21L14 20ZM17 20L17 21L18 21L18 22L19 22L19 20ZM21 21L21 24L24 24L24 21ZM22 22L22 23L23 23L23 22ZM9 24L9 25L8 25L8 26L9 26L9 25L10 25L10 24ZM17 24L17 25L18 25L18 24ZM25 24L25 25L27 25L27 24ZM27 26L27 27L28 27L28 26ZM10 27L10 28L11 28L11 27ZM19 27L19 28L20 28L20 29L21 29L21 27ZM0 0L0 7L7 7L7 0ZM1 1L1 6L6 6L6 1ZM2 2L2 5L5 5L5 2ZM22 0L22 7L29 7L29 0ZM23 1L23 6L28 6L28 1ZM24 2L24 5L27 5L27 2ZM0 22L0 29L7 29L7 22ZM1 23L1 28L6 28L6 23ZM2 24L2 27L5 27L5 24Z" fill="#000000"/></g></g></svg>
