<?xml version="1.0" encoding="UTF-8"?>
<svg xmlns="http://www.w3.org/2000/svg" version="1.1" width="300" height="300" viewBox="0 0 300 300"><rect x="0" y="0" width="300" height="300" fill="#ffffff"/><g transform="scale(10.345)"><g transform="translate(0,0)"><path fill-rule="evenodd" d="M9 0L9 1L8 1L8 3L9 3L9 4L8 4L8 8L6 8L6 9L7 9L7 10L6 10L6 11L8 11L8 12L9 12L9 11L11 11L11 10L12 10L12 9L11 9L11 8L10 8L10 7L11 7L11 6L12 6L12 8L13 8L13 6L14 6L14 8L15 8L15 9L14 9L14 10L16 10L16 9L17 9L17 10L18 10L18 9L17 9L17 8L18 8L18 7L19 7L19 6L20 6L20 10L19 10L19 11L18 11L18 12L17 12L17 13L16 13L16 14L18 14L18 15L17 15L17 16L16 16L16 15L13 15L13 12L12 12L12 13L9 13L9 14L12 14L12 16L11 16L11 17L12 17L12 16L13 16L13 17L15 17L15 16L16 16L16 17L17 17L17 20L14 20L14 18L13 18L13 20L12 20L12 19L10 19L10 17L9 17L9 16L8 16L8 14L6 14L6 13L7 13L7 12L5 12L5 11L4 11L4 10L5 10L5 9L4 9L4 8L3 8L3 9L4 9L4 10L3 10L3 11L2 11L2 8L0 8L0 9L1 9L1 13L0 13L0 14L2 14L2 15L3 15L3 17L2 17L2 18L3 18L3 20L2 20L2 21L3 21L3 20L4 20L4 18L3 18L3 17L4 17L4 16L5 16L5 17L7 17L7 18L6 18L6 19L7 19L7 18L8 18L8 19L9 19L9 20L11 20L11 22L10 22L10 21L8 21L8 20L6 20L6 21L8 21L8 23L11 23L11 24L9 24L9 25L8 25L8 26L9 26L9 25L10 25L10 27L11 27L11 28L12 28L12 29L14 29L14 28L12 28L12 24L14 24L14 25L13 25L13 27L15 27L15 24L14 24L14 23L15 23L15 22L14 22L14 21L17 21L17 22L16 22L16 24L17 24L17 25L18 25L18 24L19 24L19 22L20 22L20 25L19 25L19 26L17 26L17 27L16 27L16 28L15 28L15 29L16 29L16 28L17 28L17 29L18 29L18 27L19 27L19 28L20 28L20 29L21 29L21 27L19 27L19 26L23 26L23 25L24 25L24 28L23 28L23 27L22 27L22 29L24 29L24 28L25 28L25 29L26 29L26 28L25 28L25 27L27 27L27 29L28 29L28 27L29 27L29 26L28 26L28 25L29 25L29 23L28 23L28 22L29 22L29 21L27 21L27 20L29 20L29 17L28 17L28 15L29 15L29 14L23 14L23 15L25 15L25 16L26 16L26 15L27 15L27 17L28 17L28 18L27 18L27 20L26 20L26 22L27 22L27 23L25 23L25 20L24 20L24 19L23 19L23 18L24 18L24 17L22 17L22 16L21 16L21 15L22 15L22 13L23 13L23 11L26 11L26 12L25 12L25 13L26 13L26 12L27 12L27 13L29 13L29 12L28 12L28 10L29 10L29 9L28 9L28 8L26 8L26 9L25 9L25 8L22 8L22 10L23 10L23 11L21 11L21 12L19 12L19 11L20 11L20 10L21 10L21 5L19 5L19 4L20 4L20 3L19 3L19 2L16 2L16 1L17 1L17 0L16 0L16 1L14 1L14 0L12 0L12 1L11 1L11 2L9 2L9 1L10 1L10 0ZM18 0L18 1L20 1L20 2L21 2L21 1L20 1L20 0ZM14 2L14 3L16 3L16 4L15 4L15 8L17 8L17 7L18 7L18 5L16 5L16 4L18 4L18 3L16 3L16 2ZM12 3L12 4L9 4L9 5L10 5L10 6L9 6L9 7L10 7L10 6L11 6L11 5L12 5L12 6L13 6L13 3ZM16 6L16 7L17 7L17 6ZM8 8L8 9L9 9L9 10L8 10L8 11L9 11L9 10L10 10L10 8ZM23 9L23 10L25 10L25 9ZM26 9L26 10L28 10L28 9ZM3 11L3 12L2 12L2 14L3 14L3 15L4 15L4 13L3 13L3 12L4 12L4 11ZM14 11L14 12L15 12L15 11ZM18 12L18 13L19 13L19 12ZM20 13L20 14L19 14L19 15L20 15L20 14L21 14L21 13ZM6 15L6 16L7 16L7 15ZM0 16L0 17L1 17L1 16ZM19 16L19 17L18 17L18 19L21 19L21 20L22 20L22 19L21 19L21 17L20 17L20 16ZM8 17L8 18L9 18L9 17ZM25 17L25 18L26 18L26 17ZM0 18L0 19L1 19L1 18ZM0 20L0 21L1 21L1 20ZM13 20L13 21L14 21L14 20ZM17 20L17 21L19 21L19 20ZM21 21L21 24L24 24L24 21ZM22 22L22 23L23 23L23 22ZM17 23L17 24L18 24L18 23ZM25 24L25 25L28 25L28 24ZM27 26L27 27L28 27L28 26ZM8 27L8 29L9 29L9 27ZM0 0L0 7L7 7L7 0ZM1 1L1 6L6 6L6 1ZM2 2L2 5L5 5L5 2ZM22 0L22 7L29 7L29 0ZM23 1L23 6L28 6L28 1ZM24 2L24 5L27 5L27 2ZM0 22L0 29L7 29L7 22ZM1 23L1 28L6 28L6 23ZM2 24L2 27L5 27L5 24Z" fill="#000000"/></g></g></svg>
