<?xml version="1.0" encoding="UTF-8"?>
<svg xmlns="http://www.w3.org/2000/svg" version="1.1" width="300" height="300" viewBox="0 0 300 300"><rect x="0" y="0" width="300" height="300" fill="#ffffff"/><g transform="scale(10.345)"><g transform="translate(0,0)"><path fill-rule="evenodd" d="M8 0L8 1L9 1L9 2L8 2L8 5L9 5L9 4L11 4L11 5L10 5L10 10L9 10L9 13L8 13L8 10L6 10L6 9L7 9L7 8L6 8L6 9L5 9L5 11L7 11L7 12L5 12L5 13L4 13L4 8L0 8L0 9L2 9L2 10L1 10L1 11L0 11L0 15L1 15L1 16L0 16L0 17L1 17L1 16L2 16L2 15L3 15L3 16L4 16L4 15L5 15L5 17L7 17L7 16L6 16L6 15L7 15L7 14L6 14L6 13L8 13L8 14L9 14L9 16L8 16L8 18L9 18L9 19L11 19L11 20L10 20L10 21L11 21L11 20L12 20L12 19L11 19L11 17L9 17L9 16L12 16L12 17L13 17L13 16L12 16L12 14L13 14L13 15L14 15L14 12L15 12L15 14L17 14L17 15L16 15L16 16L14 16L14 17L15 17L15 18L13 18L13 21L15 21L15 20L16 20L16 19L17 19L17 21L16 21L16 23L18 23L18 24L17 24L17 25L16 25L16 24L15 24L15 22L14 22L14 23L11 23L11 22L10 22L10 23L9 23L9 24L10 24L10 25L8 25L8 29L9 29L9 27L10 27L10 29L12 29L12 28L14 28L14 27L15 27L15 29L16 29L16 28L17 28L17 27L18 27L18 29L23 29L23 28L24 28L24 29L25 29L25 28L26 28L26 27L27 27L27 29L28 29L28 27L29 27L29 23L28 23L28 22L29 22L29 21L27 21L27 18L28 18L28 15L29 15L29 13L27 13L27 12L25 12L25 13L26 13L26 15L27 15L27 17L26 17L26 16L24 16L24 15L25 15L25 14L24 14L24 15L23 15L23 13L24 13L24 11L23 11L23 10L25 10L25 9L27 9L27 8L24 8L24 9L23 9L23 10L20 10L20 9L19 9L19 8L20 8L20 7L21 7L21 6L20 6L20 4L21 4L21 0L18 0L18 1L17 1L17 0L16 0L16 2L14 2L14 1L15 1L15 0L14 0L14 1L13 1L13 0L12 0L12 1L11 1L11 0L10 0L10 1L9 1L9 0ZM19 1L19 2L20 2L20 1ZM11 2L11 4L12 4L12 3L13 3L13 2ZM16 2L16 3L14 3L14 4L17 4L17 3L18 3L18 4L20 4L20 3L18 3L18 2ZM12 5L12 6L11 6L11 8L12 8L12 6L13 6L13 11L11 11L11 13L9 13L9 14L11 14L11 13L12 13L12 12L13 12L13 11L14 11L14 9L15 9L15 11L16 11L16 9L15 9L15 8L17 8L17 7L18 7L18 6L19 6L19 7L20 7L20 6L19 6L19 5L18 5L18 6L17 6L17 7L16 7L16 5L15 5L15 7L14 7L14 5ZM8 6L8 7L9 7L9 6ZM8 8L8 9L9 9L9 8ZM21 8L21 9L22 9L22 8ZM28 8L28 10L26 10L26 11L28 11L28 12L29 12L29 11L28 11L28 10L29 10L29 8ZM11 9L11 10L12 10L12 9ZM17 9L17 10L19 10L19 11L17 11L17 12L19 12L19 13L17 13L17 14L19 14L19 13L20 13L20 14L21 14L21 15L20 15L20 16L19 16L19 15L17 15L17 16L16 16L16 17L17 17L17 19L18 19L18 20L22 20L22 19L23 19L23 20L26 20L26 18L25 18L25 17L24 17L24 18L25 18L25 19L23 19L23 15L22 15L22 14L21 14L21 13L23 13L23 11L22 11L22 12L21 12L21 13L20 13L20 12L19 12L19 11L20 11L20 10L19 10L19 9ZM2 10L2 12L1 12L1 15L2 15L2 14L4 14L4 13L3 13L3 10ZM5 14L5 15L6 15L6 14ZM21 15L21 16L20 16L20 19L22 19L22 15ZM18 16L18 18L19 18L19 16ZM3 17L3 18L4 18L4 19L2 19L2 20L1 20L1 21L3 21L3 20L4 20L4 19L5 19L5 21L7 21L7 20L8 20L8 22L9 22L9 20L8 20L8 19L7 19L7 18L6 18L6 19L5 19L5 18L4 18L4 17ZM0 18L0 19L1 19L1 18ZM6 19L6 20L7 20L7 19ZM17 21L17 22L18 22L18 23L19 23L19 24L18 24L18 27L19 27L19 28L20 28L20 27L19 27L19 26L21 26L21 28L22 28L22 27L23 27L23 25L22 25L22 26L21 26L21 25L20 25L20 23L19 23L19 22L20 22L20 21L19 21L19 22L18 22L18 21ZM21 21L21 24L24 24L24 21ZM22 22L22 23L23 23L23 22ZM26 22L26 24L25 24L25 25L26 25L26 26L24 26L24 27L26 27L26 26L27 26L27 27L28 27L28 25L26 25L26 24L28 24L28 23L27 23L27 22ZM12 24L12 26L11 26L11 25L10 25L10 27L11 27L11 28L12 28L12 26L13 26L13 27L14 27L14 26L15 26L15 27L16 27L16 26L15 26L15 24ZM13 25L13 26L14 26L14 25ZM0 0L0 7L7 7L7 0ZM1 1L1 6L6 6L6 1ZM2 2L2 5L5 5L5 2ZM22 0L22 7L29 7L29 0ZM23 1L23 6L28 6L28 1ZM24 2L24 5L27 5L27 2ZM0 22L0 29L7 29L7 22ZM1 23L1 28L6 28L6 23ZM2 24L2 27L5 27L5 24Z" fill="#000000"/></g></g></svg>
