<?xml version="1.0" encoding="UTF-8"?>
<svg xmlns="http://www.w3.org/2000/svg" version="1.1" width="300" height="300" viewBox="0 0 300 300"><rect x="0" y="0" width="300" height="300" fill="#ffffff"/><g transform="scale(10.345)"><g transform="translate(0,0)"><path fill-rule="evenodd" d="M9 0L9 1L10 1L10 2L8 2L8 3L9 3L9 4L10 4L10 5L9 5L9 6L8 6L8 8L4 8L4 9L3 9L3 8L0 8L0 9L3 9L3 10L4 10L4 9L7 9L7 10L6 10L6 11L7 11L7 12L5 12L5 11L3 11L3 12L2 12L2 13L1 13L1 15L0 15L0 16L4 16L4 15L5 15L5 17L4 17L4 18L2 18L2 17L1 17L1 18L0 18L0 19L1 19L1 20L0 20L0 21L1 21L1 20L2 20L2 19L4 19L4 20L3 20L3 21L4 21L4 20L5 20L5 21L7 21L7 20L6 20L6 19L7 19L7 18L9 18L9 19L8 19L8 20L9 20L9 19L10 19L10 22L9 22L9 21L8 21L8 25L9 25L9 26L8 26L8 29L11 29L11 28L12 28L12 29L13 29L13 28L12 28L12 27L11 27L11 26L12 26L12 24L14 24L14 26L13 26L13 27L14 27L14 26L15 26L15 22L14 22L14 21L13 21L13 20L12 20L12 19L11 19L11 18L12 18L12 16L14 16L14 18L13 18L13 19L14 19L14 18L15 18L15 16L16 16L16 15L15 15L15 14L14 14L14 13L13 13L13 12L12 12L12 11L11 11L11 12L12 12L12 13L11 13L11 14L9 14L9 15L10 15L10 17L8 17L8 16L6 16L6 15L7 15L7 14L8 14L8 13L9 13L9 12L8 12L8 10L9 10L9 11L10 11L10 10L12 10L12 8L14 8L14 10L13 10L13 11L14 11L14 10L16 10L16 11L15 11L15 12L17 12L17 17L20 17L20 18L21 18L21 19L20 19L20 20L19 20L19 19L18 19L18 18L17 18L17 19L16 19L16 20L15 20L15 21L17 21L17 23L16 23L16 24L17 24L17 25L16 25L16 26L17 26L17 25L18 25L18 24L19 24L19 23L20 23L20 27L19 27L19 26L18 26L18 27L16 27L16 28L15 28L15 29L18 29L18 27L19 27L19 29L21 29L21 26L22 26L22 25L24 25L24 26L23 26L23 27L22 27L22 28L23 28L23 29L24 29L24 28L25 28L25 27L26 27L26 26L28 26L28 27L27 27L27 29L29 29L29 28L28 28L28 27L29 27L29 21L26 21L26 22L25 22L25 20L26 20L26 19L25 19L25 20L24 20L24 19L23 19L23 16L21 16L21 15L22 15L22 14L23 14L23 12L24 12L24 11L25 11L25 10L26 10L26 11L27 11L27 13L28 13L28 14L27 14L27 17L26 17L26 12L25 12L25 14L24 14L24 15L25 15L25 18L27 18L27 20L28 20L28 19L29 19L29 16L28 16L28 15L29 15L29 12L28 12L28 11L29 11L29 9L28 9L28 10L26 10L26 9L27 9L27 8L26 8L26 9L25 9L25 10L23 10L23 8L21 8L21 6L20 6L20 3L21 3L21 1L20 1L20 0L18 0L18 1L19 1L19 2L18 2L18 4L17 4L17 6L16 6L16 8L15 8L15 6L14 6L14 5L15 5L15 4L16 4L16 3L17 3L17 0L16 0L16 1L14 1L14 0L12 0L12 1L10 1L10 0ZM13 1L13 2L14 2L14 1ZM11 2L11 3L12 3L12 4L11 4L11 5L10 5L10 6L9 6L9 7L10 7L10 6L11 6L11 8L12 8L12 6L13 6L13 7L14 7L14 6L13 6L13 5L14 5L14 4L13 4L13 3L12 3L12 2ZM15 2L15 3L16 3L16 2ZM19 2L19 3L20 3L20 2ZM17 6L17 7L18 7L18 10L17 10L17 9L16 9L16 10L17 10L17 11L19 11L19 12L18 12L18 13L19 13L19 15L21 15L21 13L19 13L19 12L20 12L20 11L22 11L22 9L21 9L21 8L19 8L19 7L20 7L20 6L19 6L19 7L18 7L18 6ZM9 8L9 10L10 10L10 8ZM20 9L20 10L21 10L21 9ZM3 12L3 13L2 13L2 15L3 15L3 13L4 13L4 12ZM7 12L7 13L6 13L6 14L7 14L7 13L8 13L8 12ZM13 14L13 15L14 15L14 14ZM11 15L11 16L12 16L12 15ZM6 17L6 18L4 18L4 19L6 19L6 18L7 18L7 17ZM10 17L10 18L11 18L11 17ZM27 17L27 18L28 18L28 17ZM1 18L1 19L2 19L2 18ZM21 19L21 20L23 20L23 19ZM11 20L11 21L12 21L12 20ZM18 20L18 21L19 21L19 20ZM21 21L21 24L24 24L24 21ZM10 22L10 23L11 23L11 24L9 24L9 25L10 25L10 26L11 26L11 24L12 24L12 23L11 23L11 22ZM13 22L13 23L14 23L14 22ZM22 22L22 23L23 23L23 22ZM26 22L26 24L25 24L25 26L26 26L26 25L28 25L28 24L27 24L27 22ZM23 27L23 28L24 28L24 27ZM0 0L0 7L7 7L7 0ZM1 1L1 6L6 6L6 1ZM2 2L2 5L5 5L5 2ZM22 0L22 7L29 7L29 0ZM23 1L23 6L28 6L28 1ZM24 2L24 5L27 5L27 2ZM0 22L0 29L7 29L7 22ZM1 23L1 28L6 28L6 23ZM2 24L2 27L5 27L5 24Z" fill="#000000"/></g></g></svg>
